<?xml version="1.0" encoding="UTF-8" standalone="no"?>
<!-- Created with Inkscape (http://www.inkscape.org/) -->

<svg
   xmlns:dc="http://purl.org/dc/elements/1.1/"
   xmlns:cc="http://creativecommons.org/ns#"
   xmlns:rdf="http://www.w3.org/1999/02/22-rdf-syntax-ns#"
   xmlns:svg="http://www.w3.org/2000/svg"
   xmlns="http://www.w3.org/2000/svg"
   xmlns:sodipodi="http://sodipodi.sourceforge.net/DTD/sodipodi-0.dtd"
   xmlns:inkscape="http://www.inkscape.org/namespaces/inkscape"
   width="36.968945mm"
   height="27.278212mm"
   viewBox="0 0 36.968945 27.278212"
   version="1.1"
   id="svg8"
   inkscape:version="0.92.3 (2405546, 2018-03-11)"
   sodipodi:docname="Logo.svg">
  <sodipodi:namedview
     id="base"
     pagecolor="#ffffff"
     bordercolor="#666666"
     borderopacity="1.0"
     inkscape:pageopacity="0.0"
     inkscape:pageshadow="2"
     inkscape:zoom="1.4"
     inkscape:cx="241.76346"
     inkscape:cy="50.328073"
     inkscape:document-units="mm"
     inkscape:current-layer="layer1"
     showgrid="false"
     inkscape:window-width="1920"
     inkscape:window-height="1001"
     inkscape:window-x="-9"
     inkscape:window-y="-9"
     inkscape:window-maximized="1" />
  <defs
     id="defs2">
    <clipPath
       clipPathUnits="userSpaceOnUse"
       id="clipPath859">
      <path
         d="m 1714.5356,1629.2087 c 1.9282,0.025 3.6976,0.092 5.3082,0.2024 1.6773,0.1103 3.2493,0.256 4.7171,0.4374 1.4661,0.1815 2.9185,0.3914 4.3513,0.6294 1.4333,0.2382 2.9383,0.4978 4.5155,0.7779 l 26.2076,4.6267 -7.3839,4.3079 c -1.1927,0.7674 -2.7375,1.337 -4.6354,1.709 -1.8962,0.372 -4.387,0.6178 -7.474,0.737 l 0.4521,0.2542 c 2.3658,-0.033 4.7423,-0.059 7.1329,-0.077 2.4587,-0.019 4.8958,-0.03 7.3101,-0.035 2.5511,0 5.1132,0 7.6876,0.01 2.6423,0.01 5.2635,0.026 7.8631,0.049 l -0.452,-0.254 c -1.5266,-0.026 -3.1786,-0.1219 -4.9558,-0.2885 -1.7113,-0.1666 -2.8794,-0.4265 -3.5079,-0.7798 -0.2762,-0.1551 -0.3271,-0.3536 -0.1508,-0.5949 0.2692,-0.2272 0.7156,-0.5254 1.337,-0.8951 l 4.9021,-2.9216 13.971,2.6305 c 1.9281,0.3649 3.5373,0.702 4.8289,1.0112 1.3826,0.3234 2.3377,0.6332 2.8657,0.93 0.276,0.1551 0.2798,0.2898 0.013,0.4038 -0.2692,0.1137 -0.6772,0.2065 -1.2209,0.2787 -0.4797,0.072 -1.063,0.1223 -1.7496,0.1522 -0.6886,0.029 -1.3007,0.045 -1.8367,0.046 l 0.452,0.254 c 1.8283,-0.032 3.6349,-0.056 5.422,-0.074 1.8535,-0.017 3.7208,-0.028 5.5991,-0.032 2.1471,0 4.3069,-10e-4 6.4788,0.01 2.24,0.01 4.459,0.027 6.6561,0.051 l -0.452,-0.254 c -2.6333,-0.08 -5.0311,-0.2172 -7.1954,-0.4116 -2.1642,-0.1944 -4.247,-0.4381 -6.2509,-0.7322 -1.9802,-0.2797 -3.9202,-0.5948 -5.8229,-0.9453 -1.878,-0.3368 -3.861,-0.6943 -5.9489,-1.0728 l -14.9905,-2.6924 8.2156,-4.6918 c 0.4204,-0.2558 0.9448,-0.5475 1.5755,-0.8746 0.7222,-0.3131 1.5905,-0.6192 2.6061,-0.9189 1.0409,-0.2855 2.2787,-0.5356 3.7137,-0.7511 1.5269,-0.2011 3.3055,-0.318 5.3365,-0.3501 l -0.4521,-0.254 c -2.9704,0.034 -5.9187,0.061 -8.8453,0.081 -2.8606,0.02 -5.8005,0.032 -8.8199,0.038 -2.6847,0.01 -5.3477,0 -7.9901,-0.01 -2.6424,-0.01 -5.3292,-0.025 -8.0645,-0.049 l 0.452,0.2542 c 1.1491,0.04 2.2979,0.081 3.4468,0.1208 1.1489,0.04 2.236,0.1022 3.2589,0.1852 1.0891,0.083 2.0413,0.2014 2.8555,0.356 0.9049,0.1682 1.6206,0.4006 2.1485,0.6974 0.2007,0.1128 0.088,0.3326 -0.3416,0.6594 -0.3352,0.3408 -0.8659,0.7242 -1.5879,1.1507 l -5.4936,3.1567 -16.022,-2.9883 c -2.2969,-0.4206 -4.2876,-0.8206 -5.9723,-1.2001 -1.5933,-0.3654 -2.5406,-0.6328 -2.8424,-0.8026 -0.5022,-0.2821 -0.5679,-0.5087 -0.1987,-0.6797 0.4613,-0.1565 1.1198,-0.2784 1.9765,-0.365 0.923,-0.087 1.9297,-0.1455 3.0193,-0.1758 1.1587,-0.03 2.2153,-0.061 3.1712,-0.091 l -0.452,-0.254 c -2.9689,0.034 -5.9509,0.061 -8.9451,0.081 -2.9942,0.02 -6.0017,0.032 -9.0212,0.038 -1.8799,0 -3.7364,2e-4 -5.5741,-0.01 -1.8376,-0.011 -3.7196,-0.028 -5.6486,-0.053 l 0.4522,0.2539 z"
         id="path857"
         inkscape:connector-curvature="0"
         style="clip-rule:evenodd" />
    </clipPath>
    <clipPath
       clipPathUnits="userSpaceOnUse"
       id="clipPath891">
      <path
         d="m 1705.7633,1629.8018 c 2.1778,0.1549 4.0832,0.5451 5.718,1.1664 1.7113,0.6233 3.2285,1.439 4.5516,2.4505 1.3214,1.0114 2.5679,2.1796 3.7344,3.5009 1.1664,1.3231 2.3719,2.7638 3.6184,4.3184 l 20.7728,25.6753 -17.3893,23.5757 c -3.1628,4.1074 -5.9121,7.3119 -8.8701,9.3348 -2.956,2.023 -6.3395,3.3461 -10.1521,3.9694 v 1.3996 c 2.8012,-0.1549 5.6005,-0.2724 8.4016,-0.3508 2.8797,-0.077 5.7199,-0.1157 8.5193,-0.1157 2.9579,0 5.914,0.039 8.8701,0.1157 3.0345,0.078 6.0297,0.1959 8.9858,0.3508 v -1.3996 c -1.7113,-0.1568 -3.4227,-0.7017 -5.134,-1.6348 -1.6347,-0.9331 -2.4504,-2.3721 -2.4504,-4.3184 0,-0.8547 0.3491,-1.9445 1.049,-3.2677 0.7782,-1.2448 15.0563,-20.8902 15.0563,-20.8902 0,0 13.3808,18.479 14.2375,20.1903 0.9331,1.7898 1.3996,3.5011 1.3996,5.1359 0,0.8547 -0.2724,1.5937 -0.8155,2.217 -0.5449,0.6215 -1.2074,1.1272 -1.9839,1.5172 -0.7015,0.3883 -1.4797,0.6606 -2.3346,0.8174 -0.8566,0.1549 -1.5956,0.2333 -2.217,0.2333 v 1.3996 c 2.1778,-0.1549 4.3166,-0.2724 6.4179,-0.3508 2.1778,-0.077 4.3576,-0.1157 6.5354,-0.1157 2.4895,0 4.979,0.039 7.4687,0.1157 2.5678,0.078 5.0965,0.1959 7.586,0.3508 v -1.3996 c -2.8777,-0.4684 -5.3673,-1.2448 -7.4686,-2.3346 -2.1013,-1.0899 -4.0067,-2.4503 -5.718,-4.0851 -1.7132,-1.5564 -3.3069,-3.3069 -4.7851,-5.2516 -1.478,-1.868 -3.0344,-3.8517 -4.6692,-5.9513 l -11.7868,-14.939 c 0,0 21.3569,-28.6704 22.7583,-30.4602 1.478,-1.7113 3.1109,-3.3834 4.9006,-5.0182 1.7898,-1.5564 3.7344,-2.9169 5.8357,-4.085 2.1779,-1.0882 4.4733,-1.7115 6.8862,-1.8664 v -1.3996 c -3.5026,0.1567 -6.9646,0.2724 -10.3872,0.3508 -3.346,0.078 -6.7688,0.1157 -10.2697,0.1157 -3.1128,0 -6.1864,-0.037 -9.221,-0.1157 -3.0343,-0.078 -6.1062,-0.1941 -9.219,-0.3508 v 1.3996 c 1.2448,0.2333 2.4895,0.4667 3.7343,0.6999 1.2447,0.2332 2.3738,0.5842 3.3852,1.0507 1.0882,0.4666 1.9447,1.1272 2.5679,1.9838 0.6998,0.9331 1.0489,2.217 1.0489,3.8518 0,0.6215 -0.5822,1.827 -1.7504,3.6167 -1.0882,1.8681 -17.0386,23.5757 -17.0386,23.5757 l -12.3711,-16.5736 c -1.7897,-2.3329 -3.2677,-4.5499 -4.4341,-6.6513 -1.0898,-2.0229 -1.6348,-3.5009 -1.6348,-4.4359 0,-1.5547 0.3901,-2.7994 1.1683,-3.7342 0.8548,-0.8548 1.8662,-1.5172 3.0344,-1.9838 1.2449,-0.4667 2.5287,-0.7782 3.8501,-0.9331 1.4015,-0.1549 2.6854,-0.3118 3.8518,-0.4667 v -1.3996 c -3.501,0.1567 -7.002,0.2724 -10.5031,0.3508 -3.5009,0.078 -7.0019,0.1157 -10.503,0.1157 -2.1796,0 -4.3184,-0.037 -6.4197,-0.1157 -2.1013,-0.078 -4.24,-0.1941 -6.4178,-0.3508 z"
         id="path889"
         inkscape:connector-curvature="0"
         style="clip-rule:evenodd" />
    </clipPath>
    <clipPath
       clipPathUnits="userSpaceOnUse"
       id="clipPath901">
      <path
         d="m 1705.7633,1629.8018 c 2.1778,0.1549 4.0832,0.5451 5.718,1.1664 1.7113,0.6233 3.2285,1.439 4.5516,2.4505 1.3214,1.0114 2.5679,2.1796 3.7344,3.5009 1.1664,1.3231 2.3719,2.7638 3.6184,4.3184 l 20.7728,25.6753 -17.3893,23.5757 c -3.1628,4.1074 -5.9121,7.3119 -8.8701,9.3348 -2.956,2.023 -6.3395,3.3461 -10.1521,3.9694 v 1.3996 c 2.8012,-0.1549 5.6005,-0.2724 8.4016,-0.3508 2.8797,-0.077 5.7199,-0.1157 8.5193,-0.1157 2.9579,0 5.914,0.039 8.8701,0.1157 3.0345,0.078 6.0297,0.1959 8.9858,0.3508 v -1.3996 c -1.7113,-0.1568 -3.4227,-0.7017 -5.134,-1.6348 -1.6347,-0.9331 -2.4504,-2.3721 -2.4504,-4.3184 0,-0.8547 0.3491,-1.9445 1.049,-3.2677 0.7782,-1.2448 15.0563,-20.8902 15.0563,-20.8902 0,0 13.3808,18.479 14.2375,20.1903 0.9331,1.7898 1.3996,3.5011 1.3996,5.1359 0,0.8547 -0.2724,1.5937 -0.8155,2.217 -0.5449,0.6215 -1.2074,1.1272 -1.9839,1.5172 -0.7015,0.3883 -1.4797,0.6606 -2.3346,0.8174 -0.8566,0.1549 -1.5956,0.2333 -2.217,0.2333 v 1.3996 c 2.1778,-0.1549 4.3166,-0.2724 6.4179,-0.3508 2.1778,-0.077 4.3576,-0.1157 6.5354,-0.1157 2.4895,0 4.979,0.039 7.4687,0.1157 2.5678,0.078 5.0965,0.1959 7.586,0.3508 v -1.3996 c -2.8777,-0.4684 -5.3673,-1.2448 -7.4686,-2.3346 -2.1013,-1.0899 -4.0067,-2.4503 -5.718,-4.0851 -1.7132,-1.5564 -3.3069,-3.3069 -4.7851,-5.2516 -1.478,-1.868 -3.0344,-3.8517 -4.6692,-5.9513 l -11.7868,-14.939 c 0,0 21.3569,-28.6704 22.7583,-30.4602 1.478,-1.7113 3.1109,-3.3834 4.9006,-5.0182 1.7898,-1.5564 3.7344,-2.9169 5.8357,-4.085 2.1779,-1.0882 4.4733,-1.7115 6.8862,-1.8664 v -1.3996 c -3.5026,0.1567 -6.9646,0.2724 -10.3872,0.3508 -3.346,0.078 -6.7688,0.1157 -10.2697,0.1157 -3.1128,0 -6.1864,-0.037 -9.221,-0.1157 -3.0343,-0.078 -6.1062,-0.1941 -9.219,-0.3508 v 1.3996 c 1.2448,0.2333 2.4895,0.4667 3.7343,0.6999 1.2447,0.2332 2.3738,0.5842 3.3852,1.0507 1.0882,0.4666 1.9447,1.1272 2.5679,1.9838 0.6998,0.9331 1.0489,2.217 1.0489,3.8518 0,0.6215 -0.5822,1.827 -1.7504,3.6167 -1.0882,1.8681 -17.0386,23.5757 -17.0386,23.5757 l -12.3711,-16.5736 c -1.7897,-2.3329 -3.2677,-4.5499 -4.4341,-6.6513 -1.0898,-2.0229 -1.6348,-3.5009 -1.6348,-4.4359 0,-1.5547 0.3901,-2.7994 1.1683,-3.7342 0.8548,-0.8548 1.8662,-1.5172 3.0344,-1.9838 1.2449,-0.4667 2.5287,-0.7782 3.8501,-0.9331 1.4015,-0.1549 2.6854,-0.3118 3.8518,-0.4667 v -1.3996 c -3.501,0.1567 -7.002,0.2724 -10.5031,0.3508 -3.5009,0.078 -7.0019,0.1157 -10.503,0.1157 -2.1796,0 -4.3184,-0.037 -6.4197,-0.1157 -2.1013,-0.078 -4.24,-0.1941 -6.4178,-0.3508 z"
         id="path899"
         inkscape:connector-curvature="0"
         style="clip-rule:evenodd" />
    </clipPath>
  </defs>
  <metadata
     id="metadata5">
    <rdf:RDF>
      <cc:Work
         rdf:about="">
        <dc:format>image/svg+xml</dc:format>
        <dc:type
           rdf:resource="http://purl.org/dc/dcmitype/StillImage" />
        <dc:title></dc:title>
      </cc:Work>
    </rdf:RDF>
  </metadata>
  <g
     id="layer1"
     inkscape:groupmode="layer"
     inkscape:label="Layer 1"
     transform="translate(-55.126428,-23.167728)">
    <path
       d="m 55.496643,50.190057 c 0.819164,-0.01287 1.583763,-0.04537 2.292303,-0.09695 0.732288,-0.05144 1.426988,-0.118417 2.083855,-0.200918 0.650946,-0.08183 1.298083,-0.175584 1.938044,-0.280674 0.633849,-0.104184 1.294602,-0.216473 1.981046,-0.336313 0,0 10.351116,-1.796875 10.351116,-1.796875 0,0 -2.441405,-1.444423 -2.441405,-1.444423 -0.432489,-0.233391 -0.843875,-0.412407 -1.447447,-0.525716 -0.597189,-0.112221 -1.394267,-0.187265 -2.395095,-0.225913 0,0 0.173622,-0.07318 0.173622,-0.07318 0.769204,0.01245 1.541681,0.02293 2.318416,0.03137 0.797912,0.0085 1.588017,0.01489 2.369794,0.01922 0.824589,0.0046 1.651293,0.0071 2.480199,0.0077 0.848899,6.16e-4 1.688904,-8.93e-4 2.519582,-0.0044 0,0 -0.133955,0.07261 -0.133955,0.07261 -0.489143,0.0056 -1.017717,0.03145 -1.58765,0.07784 -0.55208,0.04679 -0.930315,0.122052 -1.134862,0.226485 -0.09054,0.04623 -0.107299,0.105996 -0.04896,0.179438 0.08957,0.06974 2.189089,1.237615 2.189089,1.237615 0,0 5.65691,-1.065395 6.040843,-1.158461 0.407707,-0.09627 0.67522,-0.187951 0.805101,-0.275332 0.06743,-0.04537 0.05049,-0.08481 -0.04986,-0.118422 -0.100677,-0.03341 -0.24244,-0.06085 -0.4243,-0.08235 -0.161151,-0.02127 -0.352348,-0.03659 -0.573701,-0.04601 -0.221895,-0.0093 -0.417812,-0.0145 -0.588006,-0.01543 0,0 0.115367,-0.07234 0.115367,-0.07234 0.581349,0.01128 1.154761,0.02056 1.720624,0.02777 0.586287,0.0072 1.175428,0.01252 1.766177,0.01579 0.674352,0.0037 1.350365,0.0055 2.027784,0.0052 0.697238,-1.67e-4 1.385089,-0.0024 2.063179,-0.0067 0,0 -0.08521,0.0719 -0.08521,0.0719 -0.805461,0.01995 -1.52945,0.05655 -2.173165,0.110321 -0.648455,0.05417 -1.267273,0.123368 -1.858148,0.20815 -0.591542,0.08141 -1.170639,0.174395 -1.73912,0.279289 -0.569016,0.101876 -1.176841,0.21139 -1.824884,0.328816 0,0 -4.918591,0.882569 -4.918591,0.882569 0,0 3.737739,1.98311 4.015425,2.118517 0.314198,0.130906 0.687334,0.260187 1.120535,0.387895 0.44528,0.122763 0.966205,0.231064 1.562833,0.324774 0.634009,0.08786 1.354511,0.138471 2.158587,0.151151 0,0 -0.125418,0.1141 -0.125418,0.1141 -1.179558,-0.01285 -2.351112,-0.02237 -3.515121,-0.02884 -1.140124,-0.0065 -2.313441,-0.0096 -3.520814,-0.0097 -1.076234,-5.2e-5 -2.145967,0.0029 -3.210222,0.0094 -1.067113,0.0064 -2.155576,0.01601 -3.267484,0.02901 0,0 0.193485,-0.115805 0.193485,-0.115805 0.46598,-0.01913 0.930738,-0.03821 1.394308,-0.05723 0.462344,-0.01897 0.898672,-0.0475 1.30762,-0.08531 0.433755,-0.03766 0.810214,-0.09082 1.128867,-0.159417 0.351943,-0.07422 0.624273,-0.175648 0.817746,-0.303597 0.07299,-0.04827 0.01874,-0.141508 -0.16224,-0.278723 -0.143318,-0.141547 -2.722001,-1.675905 -2.722001,-1.675905 0,0 -6.143857,1.139718 -6.143857,1.139718 -0.940123,0.171367 -1.773012,0.337025 -2.494878,0.496605 -0.693936,0.155928 -1.12051,0.27138 -1.27304,0.345139 -0.255814,0.123704 -0.325873,0.223778 -0.208299,0.299563 0.158584,0.06971 0.405249,0.124026 0.740594,0.162453 0.363243,0.03853 0.766314,0.06433 1.20837,0.07722 0.470382,0.01289 0.898938,0.02594 1.286384,0.03881 0,0 -0.219921,0.116454 -0.219921,0.116454 -1.218385,-0.01312 -2.445557,-0.02283 -3.681481,-0.02944 -1.238587,-0.0066 -2.48717,-0.0098 -3.74584,-0.0099 -0.785314,-3.8e-5 -1.564293,0.003 -2.339322,0.0096 -0.776591,0.0066 -1.576107,0.01634 -2.400138,0.0296 0,0 0.283541,-0.11799 0.283541,-0.11799"
       style="opacity:0.31000001;fill:#000000;fill-opacity:1;stroke:#999999;stroke-width:0.04339167;stroke-linecap:butt;stroke-linejoin:miter;stroke-miterlimit:3.86360002;stroke-dasharray:none;stroke-opacity:0.53658537"
       id="path963-5"
       inkscape:connector-curvature="0" />
    <text
       style="font-variant:normal;font-weight:bold;font-size:3.91904378px;font-family:Helvetica;-inkscape-font-specification:Helvetica-Bold;writing-mode:lr-tb;fill:#231f20;fill-opacity:1;fill-rule:nonzero;stroke:none;stroke-width:0.35277775"
       id="text967-8"
       x="88.656639"
       y="25.973059">
      <tspan
         x="88.656639"
         y="25.973059"
         id="tspan965-5"
         style="stroke-width:0.35277775">™</tspan>
    </text>
    <path
       inkscape:connector-curvature="0"
       id="path1575"
       d="m 55.177236,50.313647 12.287531,-5.11119 24.057223,0.13388 -5.466609,4.97731 z"
       style="fill:none;stroke:#ffffff;stroke-width:0.26458332px;stroke-linecap:butt;stroke-linejoin:miter;stroke-opacity:1" />
    <path
       d="m 55.441118,49.814398 c 0.768279,-0.0546 1.440462,-0.1923 2.017183,-0.41148 0.603709,-0.21989 1.138943,-0.50765 1.605703,-0.86448 0.466161,-0.3568 0.905898,-0.76892 1.317414,-1.23504 0.411479,-0.46676 0.836753,-0.97501 1.276491,-1.523437 l 7.328182,-9.057674 -6.134559,-8.316983 c -1.115765,-1.448999 -2.085657,-2.579476 -3.129174,-3.29311 -1.042811,-0.71367 -2.236435,-1.18043 -3.581435,-1.400316 V 23.21813 c 0.988201,0.05465 1.975732,0.0961 2.963898,0.123755 1.015894,0.02716 2.017853,0.04082 3.005419,0.04082 1.043482,0 2.086328,-0.01376 3.129174,-0.04082 1.070505,-0.02752 2.127145,-0.06911 3.169991,-0.123755 v 0.493748 c -0.603709,0.05531 -1.207452,0.247544 -1.811161,0.576721 -0.576686,0.329177 -0.864447,0.836824 -0.864447,1.523435 0,0.30152 0.123155,0.685977 0.370064,1.152772 0.274532,0.439138 5.311528,7.369598 5.311528,7.369598 0,0 4.720449,-6.51898 5.022673,-7.122688 0.329178,-0.631402 0.493748,-1.235111 0.493748,-1.811832 0,-0.301519 -0.0961,-0.562222 -0.28769,-0.782108 -0.192229,-0.219252 -0.425944,-0.397651 -0.699876,-0.535235 -0.247473,-0.136983 -0.522005,-0.233045 -0.823595,-0.28836 -0.302189,-0.05465 -0.562892,-0.0823 -0.782108,-0.0823 v -0.493748 c 0.768279,0.05465 1.5228,0.0961 2.264092,0.123755 0.76828,0.02716 1.537265,0.04082 2.305544,0.04082 0.87824,0 1.756481,-0.01376 2.634792,-0.04082 0.905863,-0.02752 1.797932,-0.06911 2.676172,-0.123755 v 0.493748 c -1.015188,0.165241 -1.893465,0.439138 -2.634756,0.823595 -0.741292,0.384492 -1.413475,0.864411 -2.017184,1.441132 -0.604379,0.549064 -1.1666,1.166601 -1.688076,1.852648 -0.521406,0.658989 -1.070469,1.358794 -1.64719,2.099486 l -4.158121,5.270147 c 0,0 7.534239,10.11428 8.028622,10.745681 0.521405,0.603711 1.097456,1.193591 1.728823,1.770311 0.6314,0.54906 1.317412,1.02902 2.058705,1.4411 0.768313,0.38389 1.578081,0.60378 2.429299,0.65842 v 0.49375 c -1.235641,-0.0553 -2.456958,-0.0961 -3.664374,-0.12376 -1.180395,-0.0275 -2.387882,-0.0408 -3.622922,-0.0408 -1.098127,0 -2.182425,0.013 -3.252964,0.0408 -1.070433,0.0275 -2.154132,0.0685 -3.252258,0.12376 v -0.49375 c 0.439138,-0.0823 0.87824,-0.16464 1.317378,-0.24691 0.439102,-0.0823 0.837424,-0.20609 1.194223,-0.37066 0.383893,-0.16461 0.686047,-0.39765 0.905898,-0.69984 0.246874,-0.32918 0.370029,-0.78211 0.370029,-1.35883 0,-0.21925 -0.205387,-0.64453 -0.617502,-1.275893 -0.383893,-0.659025 -6.01084,-8.316983 -6.01084,-8.316983 l -4.364249,5.846797 c -0.631366,0.822996 -1.152772,1.605104 -1.564252,2.346431 -0.384457,0.713638 -0.576721,1.235038 -0.576721,1.564888 0,0.54846 0.137619,0.98757 0.412151,1.31734 0.301554,0.30156 0.658353,0.53524 1.070468,0.69984 0.439173,0.16464 0.89207,0.27453 1.35823,0.32918 0.494418,0.0546 0.94735,0.11 1.35883,0.16464 v 0.49375 c -1.235075,-0.0553 -2.470151,-0.0961 -3.705261,-0.12376 -1.23504,-0.0275 -2.470115,-0.0408 -3.705225,-0.0408 -0.768914,0 -1.523435,0.013 -2.264727,0.0408 -0.741292,0.0275 -1.495778,0.0685 -2.264057,0.12376 z"
       style="fill:#000000;stroke:#231f20;stroke-width:0.04339167;stroke-linecap:butt;stroke-linejoin:miter;stroke-miterlimit:3.86360002;stroke-dasharray:none;stroke-opacity:1"
       id="path963-3"
       inkscape:connector-curvature="0" />
  </g>
</svg>
